first trial
nRows=33
nColumns=38

# SIMM Motion File Header:
name Sujet_02_velo_100.mvnx
datacolumns 38
datarows 33
otherdata 1
range 3.9160 4.4500
endheader
time pelvis_tilt  pelvis_list  pelvis_rotation  pelvis_tx  pelvis_ty  pelvis_tz  hip_flexion_r  hip_adduction_r  hip_rotation_r  knee_angle_r  ankle_angle_r  subtalar_angle_r  mtp_angle_r  hip_flexion_l  hip_adduction_l  hip_rotation_l  knee_angle_l  ankle_angle_l  subtalar_angle_l  mtp_angle_l  lumbar_extension  lumbar_bending  lumbar_rotation  arm_flex_r  arm_add_r  arm_rot_r  elbow_flex_r  pro_sup_r  wrist_flex_r  wrist_dev_r  arm_flex_l  arm_add_l  arm_rot_l  elbow_flex_l  pro_sup_l  wrist_flex_l  wrist_dev_l
3.9160	2.3840	0.2612	-81.9029	-1.3736	4.0028	5.7857	29.9837	-1.7502	-6.0831	48.7862	-4.6107	-8.0059	0.0000	65.7273	8.7039	2.6056	95.7631	-19.9862	-15.9357	-0.0000	-26.4430	3.5717	1.9563	86.3709	-15.6839	39.1060	6.9536	74.3777	-5.2696	9.7616	91.7096	8.6198	36.8902	5.0042	91.6341	-15.2015	-0.9300	
3.9330	2.3356	0.2945	-81.9192	-1.3764	4.0181	5.8117	30.5850	-1.8989	-7.0401	53.1339	-3.4931	-7.5004	0.0000	66.1757	8.8774	2.2163	93.2010	-18.9740	-16.1677	-0.0000	-26.6040	3.5143	2.0133	86.1762	-15.6765	38.3975	7.3684	74.3642	-5.2299	10.1089	91.8112	8.6971	36.3782	5.6791	91.9171	-15.0630	-0.4990	
3.9500	2.2641	0.2983	-81.9023	-1.3790	4.0334	5.8378	31.7356	-2.2003	-7.3035	58.0834	-2.4132	-6.9698	-0.0000	66.3655	8.8953	1.5985	90.3032	-18.2908	-16.0171	0.0000	-26.7285	3.5048	2.0574	86.0776	-15.6968	37.9371	7.6286	74.2937	-5.2053	10.3932	91.9390	8.7881	36.0635	6.0574	92.0899	-14.9763	-0.2407	
3.9660	2.1804	0.2524	-81.8076	-1.3816	4.0486	5.8639	33.4555	-2.6942	-6.3362	63.6076	-1.5048	-6.3568	0.0000	66.4241	8.7437	0.5825	87.1243	-18.3533	-15.1815	0.0000	-26.7964	3.5745	2.0747	86.1245	-15.8337	38.0370	7.5964	73.9837	-5.1937	10.5511	92.1367	8.9219	36.1257	5.9312	92.0646	-14.9492	-0.2479	
3.9830	2.0733	0.1773	-81.6797	-1.3841	4.0639	5.8902	35.7438	-3.2742	-4.6525	69.7005	-0.6333	-5.7222	0.0000	66.2147	8.4453	-0.6605	83.5909	-18.7417	-13.9084	-0.0000	-26.8276	3.6924	2.0798	86.2684	-16.0022	38.3859	7.4087	73.6157	-5.1999	10.6450	92.3598	9.0666	36.3848	5.5056	91.9243	-14.9714	-0.4261	
4.0000	1.9446	0.1248	-81.6006	-1.3865	4.0785	5.9164	38.3587	-3.8408	-3.1822	75.8108	0.1176	-5.1847	0.0000	65.0474	8.0436	-1.5332	79.3171	-18.9442	-12.7480	-0.0000	-26.8158	3.7955	2.0919	86.4372	-16.0881	38.6843	7.2295	73.4019	-5.2600	10.6917	92.5235	9.1919	36.5051	5.0602	91.8427	-15.0109	-0.6487	
4.0160	1.7911	0.1269	-81.6018	-1.3889	4.0922	5.9427	41.2757	-4.4296	-2.2034	81.9509	0.6719	-4.8202	0.0000	62.4332	7.5439	-1.6998	73.8738	-18.6008	-11.8702	-0.0000	-26.7426	3.8551	2.1180	86.6298	-16.0522	38.7995	7.1054	73.4682	-5.4198	10.6672	92.5733	9.3105	36.2744	4.6887	91.9461	-15.0402	-0.8700	
4.0330	1.6161	0.1511	-81.6513	-1.3912	4.1052	5.9691	44.5151	-5.0208	-1.4281	88.1362	1.1052	-4.5578	0.0000	58.8757	6.9258	-1.5387	67.7152	-18.0556	-11.0562	-0.0000	-26.6267	3.9000	2.1509	86.8468	-15.9337	38.8630	6.9889	73.6885	-5.6347	10.5953	92.5647	9.4088	35.9049	4.2997	92.1102	-15.0886	-1.1370	
4.0500	1.4315	0.1515	-81.7350	-1.3934	4.1187	5.9953	47.8821	-5.5068	-0.9597	93.8242	1.5527	-4.2606	-0.0000	55.1769	6.2242	-1.5242	61.7920	-17.8727	-10.3320	0.0000	-26.5172	3.9541	2.1881	87.0176	-15.7371	38.9704	6.9042	73.8970	-5.8045	10.5651	92.5786	9.4153	35.6969	3.8968	92.1357	-15.2104	-1.4633	
4.0660	1.2083	0.0872	-81.8524	-1.3953	4.1334	6.0212	51.6147	-5.9279	-0.9936	99.3087	2.1724	-3.5601	0.0000	51.4149	5.4415	-1.8718	56.1261	-18.3035	-9.7620	-0.0000	-26.4412	4.0407	2.2318	87.1332	-15.4383	39.2154	6.8329	73.9970	-5.8948	10.6192	92.6604	9.2685	35.8079	3.4620	91.9204	-15.4736	-1.8963	
4.0830	0.9754	-0.0014	-82.0043	-1.3970	4.1486	6.0471	55.4614	-6.3103	-1.3532	104.2554	2.7829	-2.7865	0.0000	47.5063	4.6184	-2.3959	50.6952	-19.1163	-9.3599	0.0000	-26.3720	4.1366	2.2800	87.1988	-15.0619	39.5038	6.7946	74.0868	-5.9399	10.7152	92.7651	9.0301	36.0806	3.0146	91.5704	-15.8163	-2.3946	
4.1000	0.8320	-0.0382	-82.1775	-1.3989	4.1623	6.0728	58.4955	-6.4939	-1.6081	107.1962	3.0527	-2.8632	0.0000	44.0018	3.8684	-2.9179	46.3730	-20.1613	-9.1254	-0.0000	-26.2775	4.1963	2.3228	87.1692	-14.6859	39.6499	6.8719	74.2940	-5.9415	10.8149	92.8379	8.8137	36.3436	2.6119	91.1983	-16.0918	-2.8325	
4.1160	0.8396	0.0382	-82.3863	-1.4015	4.1733	6.0984	60.1679	-6.3249	-1.6346	107.0098	2.5640	-4.5037	-0.0000	40.9913	3.1948	-3.3002	43.3522	-21.6329	-9.1067	0.0000	-26.1181	4.1798	2.3563	87.0223	-14.3288	39.5361	7.1162	74.7220	-5.8712	10.9111	92.8665	8.6750	36.5809	2.2220	90.7999	-16.2297	-3.1872	
4.1330	0.9358	0.1671	-82.6160	-1.4043	4.1828	6.1238	61.0268	-5.9314	-1.5777	104.8338	1.7272	-6.9953	-0.0000	38.3814	2.5775	-3.6409	41.4342	-23.3402	-9.2602	0.0000	-25.9329	4.1276	2.3852	86.7850	-13.9729	39.2812	7.4816	75.2718	-5.7592	11.0092	92.8632	8.5595	36.8090	1.8784	90.3799	-16.2937	-3.4750	
4.1500	1.0327	0.2428	-82.8102	-1.4071	4.1934	6.1492	61.7989	-5.5332	-1.4131	102.5998	1.5265	-9.1640	-0.0000	36.4482	2.0700	-4.0801	40.9002	-24.5525	-9.4432	-0.0000	-25.8080	4.1147	2.4110	86.4875	-13.6409	39.0546	7.9032	75.7670	-5.6931	11.0915	92.8066	8.4140	36.9054	1.7310	90.0581	-16.3342	-3.6236	
4.1660	1.0881	0.2094	-82.9457	-1.4095	4.2062	6.1747	62.8136	-5.1808	-1.0289	101.0273	2.6291	-10.6999	0.0000	35.3419	1.6649	-4.7399	42.0437	-24.8499	-9.6236	-0.0000	-25.7936	4.1837	2.4324	86.0756	-13.3311	38.8954	8.4313	76.1701	-5.7175	11.1544	92.6488	8.2147	36.7353	1.9167	89.9379	-16.3718	-3.5547	
4.1830	1.1450	0.1224	-83.0452	-1.4118	4.2200	6.2001	63.7416	-4.8199	-0.5367	99.3860	4.4173	-12.0031	-0.0000	34.9148	1.3470	-5.4727	44.5552	-24.6529	-9.8413	0.0000	-25.8396	4.2912	2.4499	85.6032	-13.0452	38.7655	9.0144	76.5211	-5.7865	11.2046	92.4350	7.9852	36.4331	2.2939	89.9100	-16.3827	-3.3453	
4.2000	1.2440	0.0413	-83.1212	-1.4142	4.2340	6.2252	64.3266	-4.5196	-0.2454	97.4431	5.9884	-12.9538	-0.0000	34.9992	1.1556	-6.0150	47.8214	-24.4914	-10.0712	-0.0000	-25.8810	4.3826	2.4666	85.2607	-12.8110	38.7167	9.4274	76.7525	-5.8504	11.2415	92.2845	7.7406	36.2808	2.5937	89.7747	-16.3535	-3.1579	
4.2160	1.4344	-0.0442	-83.1757	-1.4169	4.2480	6.2496	64.6204	-4.3296	-0.2772	95.3276	7.0874	-13.4228	-0.0000	35.5870	1.1116	-6.3653	51.8547	-24.5596	-10.2990	-0.0000	-25.8904	4.4527	2.4947	85.1135	-12.6439	38.7945	9.5814	76.7987	-5.8871	11.2753	92.2634	7.4494	36.4294	2.7280	89.3846	-16.2249	-3.0001	
4.2330	1.6668	-0.1238	-83.2062	-1.4197	4.2622	6.2736	64.5740	-4.2087	-0.5015	92.9277	7.9604	-13.5024	-0.0000	36.6892	1.1858	-6.5221	56.6650	-24.6653	-10.5424	-0.0000	-25.8950	4.5069	2.5218	85.0951	-12.5281	38.9518	9.5599	76.7172	-5.9184	11.2947	92.3081	7.1420	36.7277	2.7864	88.8886	-16.0572	-2.8644	
4.2500	1.8345	-0.1071	-83.2187	-1.4229	4.2763	6.2982	63.7820	-4.0902	-0.8425	89.6570	8.4316	-13.3234	0.0000	38.1652	1.3595	-6.2301	61.6429	-24.7580	-10.8134	-0.0000	-25.9116	4.5065	2.5142	85.1989	-12.4445	39.1004	9.3969	76.6212	-5.9609	11.2645	92.3451	6.9252	37.0050	2.7665	88.5329	-16.0189	-2.8916	
4.2660	1.8824	0.0982	-83.2390	-1.4268	4.2902	6.3238	61.9845	-3.9714	-1.3679	85.0403	8.3788	-12.7516	0.0000	40.0026	1.6965	-5.2652	66.6553	-24.8195	-11.1092	-0.0000	-25.9550	4.4096	2.4510	85.4637	-12.3627	39.2203	9.0741	76.5503	-6.0481	11.1657	92.3519	6.8568	37.1970	2.6220	88.4073	-16.2181	-3.2006	
4.2830	1.8655	0.3996	-83.2414	-1.4310	4.3039	6.3499	59.4434	-3.8374	-2.0100	79.5539	7.9319	-11.8886	-0.0000	42.2100	2.1822	-3.8777	71.8043	-24.8679	-11.4233	-0.0000	-26.0106	4.2582	2.3530	85.8514	-12.3128	39.3299	8.6137	76.4700	-6.1471	11.0167	92.3505	6.8795	37.3681	2.3992	88.4227	-16.5493	-3.6746	
4.3000	1.8427	0.6111	-83.1554	-1.4348	4.3178	6.3757	56.5363	-3.6078	-2.4851	74.0342	7.2843	-11.2093	0.0000	44.6786	2.6805	-2.5156	76.8393	-24.9046	-11.7456	-0.0000	-26.0513	4.1391	2.2493	86.2408	-12.3668	39.4004	8.1102	76.3815	-6.1751	10.8392	92.3330	6.9287	37.5410	2.2330	88.5562	-16.8569	-4.0985	
4.3160	1.8112	0.6260	-82.9283	-1.4379	4.3317	6.4011	53.2752	-3.2032	-2.6530	68.5806	6.5612	-10.9310	-0.0000	47.4828	3.1053	-1.2159	81.8607	-24.9884	-12.1071	-0.0000	-26.0581	4.1026	2.1438	86.6384	-12.5612	39.4074	7.5136	76.2965	-6.0471	10.6555	92.2916	6.9822	37.7976	2.1051	88.7986	-17.1268	-4.4600	
4.3330	1.7735	0.5512	-82.6130	-1.4406	4.3458	6.4262	49.6483	-2.7056	-2.6359	63.0904	5.6249	-10.8298	0.0000	50.5465	3.5805	0.0534	86.7791	-25.0559	-12.4568	0.0000	-26.0504	4.0982	2.0332	87.0369	-12.8608	39.3784	6.8746	76.2085	-5.8478	10.4472	92.2326	7.0622	38.0559	2.0328	89.1585	-17.3688	-4.7675	
4.3500	1.7966	0.5204	-82.2978	-1.4436	4.3600	6.4509	45.9947	-2.2935	-2.5565	58.0973	4.2729	-10.7396	0.0000	53.5362	4.2223	0.9560	91.0865	-24.9226	-12.6611	-0.0000	-26.0595	4.0615	1.9378	87.2942	-13.2297	39.3647	6.4360	76.0804	-5.7500	10.1707	92.1698	7.1685	38.0933	2.2045	89.6401	-17.4623	-4.8373	
4.3660	1.9153	0.5879	-81.9699	-1.4471	4.3745	6.4749	42.2440	-2.0381	-2.3677	53.5112	2.0777	-10.6629	0.0000	56.4258	5.0888	1.2081	94.6858	-24.4790	-12.5663	-0.0000	-26.0926	3.9644	1.8636	87.3283	-13.6876	39.3672	6.3440	75.8862	-5.8751	9.7559	92.0962	7.3321	37.7946	2.7464	90.2808	-17.3368	-4.5466	
4.3830	2.0960	0.6984	-81.6424	-1.4509	4.3892	6.4985	38.4619	-1.8861	-2.1473	49.4168	-0.5298	-10.5876	0.0000	59.2540	6.0405	1.0638	97.6862	-23.8398	-12.3594	-0.0000	-26.1430	3.8351	1.8048	87.2180	-14.2126	39.3816	6.4551	75.6449	-6.1069	9.2663	92.0223	7.5245	37.2760	3.5397	91.0545	-17.0724	-4.0266	
4.4000	2.3053	0.8200	-81.4431	-1.4550	4.4039	6.5221	35.1946	-1.8110	-2.2123	46.6138	-2.4605	-10.3575	-0.0000	61.7802	6.8840	1.0245	99.8782	-23.1443	-12.4292	-0.0000	-26.2205	3.6945	1.7638	87.0653	-14.7064	39.4511	6.5751	75.3814	-6.2580	8.8588	91.9900	7.6552	36.6610	4.4019	91.8651	-16.7735	-3.4741	
4.4160	2.5759	0.9639	-81.4499	-1.4596	4.4186	6.5456	32.5211	-1.8029	-2.7016	45.3925	-3.2404	-9.9074	-0.0000	63.9949	7.5937	1.4126	101.2609	-22.4261	-13.0880	-0.0000	-26.3415	3.5370	1.7387	86.8781	-15.1664	39.7006	6.6006	75.0678	-6.2525	8.5375	92.0473	7.6662	35.9069	5.3262	92.7450	-16.4351	-2.9095	
4.4330	2.8740	1.1209	-81.5851	-1.4645	4.4333	6.5692	30.3639	-1.8525	-3.4700	45.4637	-3.3517	-9.3235	0.0000	65.8982	8.2157	1.9517	101.8158	-21.6083	-14.0853	-0.0000	-26.4885	3.3679	1.7309	86.6531	-15.5953	40.0071	6.6321	74.7298	-6.1606	8.3022	92.1469	7.6189	35.0554	6.3155	93.6578	-16.0667	-2.3161	
4.4500	3.0666	1.2300	-81.7420	-1.4689	4.4480	6.5934	29.0364	-1.9230	-4.3903	46.7608	-3.1370	-8.7158	0.0000	67.2585	8.6796	2.2774	101.3097	-20.6874	-14.9252	-0.0000	-26.6199	3.2239	1.7476	86.4760	-15.9051	40.0440	6.7747	74.4724	-6.0102	8.3058	92.1849	7.5966	34.3555	7.1956	94.3947	-15.7822	-1.8233	
